<svg version="1.1" xmlns="http://www.w3.org/2000/svg" viewBox="0 0 42.863998413085994 153.3588644370501" width="128.59199523925798" height="460.0765933111503">
  <!-- svg-source:excalidraw -->
  
  <defs>
    <style class="style-fonts">
      @font-face {
        font-family: "Virgil";
        src: url("https://excalidraw.com/Virgil.woff2");
      }
      @font-face {
        font-family: "Cascadia";
        src: url("https://excalidraw.com/Cascadia.woff2");
      }
    </style>
    
  </defs>
  <g stroke-linecap="round" transform="translate(10 10) rotate(0 11.431999206542997 66.67943221852505)"><path d="M1.52 1.32 C1.52 1.32, 1.52 1.32, 1.52 1.32 M1.52 1.32 C1.52 1.32, 1.52 1.32, 1.52 1.32 M1.92 6.97 C3.69 3.57, 4.49 3.39, 7.16 0.93 M1.92 6.97 C3.75 5.14, 4.83 3.15, 7.16 0.93 M1.65 13.36 C6.16 6.62, 9.21 6.76, 12.15 1.29 M1.65 13.36 C3.91 8.57, 6.91 6.9, 12.15 1.29 M1.39 19.76 C4.27 11.91, 14.92 9.34, 17.14 1.65 M1.39 19.76 C6.8 13.5, 6.93 11.72, 17.14 1.65 M1.79 25.4 C3.77 18.7, 11.27 15.2, 22.13 2.01 M1.79 25.4 C6.12 18.43, 14.18 10.35, 22.13 2.01 M1.53 31.8 C10.75 26.66, 16.86 11.69, 23.83 6.14 M1.53 31.8 C9.44 24.4, 15.08 17.31, 23.83 6.14 M1.92 37.45 C7.61 32.9, 16.7 20.42, 23.57 12.54 M1.92 37.45 C9.32 29.55, 16.27 18.84, 23.57 12.54 M1.66 43.84 C8.18 34.61, 12.31 30.39, 23.31 18.94 M1.66 43.84 C10.46 36.87, 16.26 25.9, 23.31 18.94 M1.4 50.24 C10.92 42.5, 19.91 32.6, 23.7 24.58 M1.4 50.24 C5.67 42.22, 13.13 37.61, 23.7 24.58 M1.79 55.88 C10.75 50.23, 16.18 39.33, 23.44 30.98 M1.79 55.88 C10.48 46.99, 19.63 36.5, 23.44 30.98 M1.53 62.28 C6.87 54.23, 12.24 44.92, 23.84 36.62 M1.53 62.28 C9.91 51.97, 14.89 45.13, 23.84 36.62 M1.93 67.92 C3.45 63.71, 12.44 54.43, 23.58 43.02 M1.93 67.92 C7.37 63.49, 12.61 56.63, 23.58 43.02 M1.66 74.32 C6.32 67.03, 9.56 67.27, 23.31 49.42 M1.66 74.32 C5.56 69.53, 13.24 61.06, 23.31 49.42 M1.4 80.72 C8.53 71.63, 14.18 65.25, 23.71 55.06 M1.4 80.72 C7.82 75.5, 10.11 69.82, 23.71 55.06 M1.8 86.36 C8.03 79.44, 15.6 69.48, 23.45 61.46 M1.8 86.36 C6.63 81.31, 12.62 72.18, 23.45 61.46 M1.54 92.76 C7.96 84.6, 22.33 72.11, 23.84 67.1 M1.54 92.76 C11.22 84.46, 18.24 74.68, 23.84 67.1 M1.93 98.4 C9.85 93.55, 14.41 84.37, 23.58 73.5 M1.93 98.4 C6.18 95.46, 9.58 87.43, 23.58 73.5 M1.67 104.8 C9.27 99.97, 9.91 92.7, 23.32 79.9 M1.67 104.8 C5.74 95.8, 12.87 89.73, 23.32 79.9 M1.41 111.2 C7.85 101.08, 16.84 97.49, 23.71 85.54 M1.41 111.2 C8.84 102.59, 17.97 90.89, 23.71 85.54 M1.8 116.84 C5.71 107.24, 15.08 102.23, 23.45 91.94 M1.8 116.84 C7.8 106.61, 15.4 97.7, 23.45 91.94 M1.54 123.24 C9.73 115.31, 19.23 101.46, 23.85 97.58 M1.54 123.24 C10.56 115.65, 15.24 107.53, 23.85 97.58 M1.94 128.88 C7.49 119.91, 21.92 109.47, 23.59 103.98 M1.94 128.88 C9.47 121.49, 18.79 110.64, 23.59 103.98 M3.64 133.02 C10.48 129.18, 12.11 119.33, 23.32 110.38 M3.64 133.02 C9.71 125.71, 19.15 115.64, 23.32 110.38 M8.63 133.38 C16.09 128.1, 21.01 125.03, 23.72 116.02 M8.63 133.38 C13.81 127.66, 17.22 125.06, 23.72 116.02 M13.62 133.74 C18.66 132.46, 18.56 127.26, 23.46 122.42 M13.62 133.74 C16.01 129.78, 17.06 127.53, 23.46 122.42 M18.6 134.1 C20.94 131.19, 22.35 131.86, 23.85 128.06 M18.6 134.1 C19.63 132.42, 22.33 131.28, 23.85 128.06" stroke="#ffc9c9" stroke-width="0.5" fill="none"></path><path d="M5.72 0 M5.72 0 C10.45 -1.12, 10.95 2.07, 17.15 0 M5.72 0 C9.4 -1.18, 13.05 -0.56, 17.15 0 M17.15 0 C23.64 -0.55, 21.93 0.45, 22.86 5.72 M17.15 0 C22.73 -3.57, 25.53 6.36, 22.86 5.72 M22.86 5.72 C25.33 39.65, 20.26 75.25, 22.86 127.64 M22.86 5.72 C26.82 40.06, 23.14 74.64, 22.86 127.64 M22.86 127.64 C26.78 132.29, 18.91 131.56, 17.15 133.36 M22.86 127.64 C27.25 135.69, 20.56 134.45, 17.15 133.36 M17.15 133.36 C17.01 131.65, 11.16 134.39, 5.72 133.36 M17.15 133.36 C14.35 133.6, 9.5 134.55, 5.72 133.36 M5.72 133.36 C-0.08 136.83, -0.49 133.87, 0 127.64 M5.72 133.36 C-2.63 134.46, 0.67 133.9, 0 127.64 M0 127.64 C1.21 89.57, 1.82 42.28, 0 5.72 M0 127.64 C-0.49 77.4, -1.99 31.72, 0 5.72 M0 5.72 C-1.77 5.83, -0.78 -1.86, 5.72 0 M0 5.72 C-2.57 4.63, -2.49 0.21, 5.72 0" stroke="#f08c00" stroke-width="1" fill="none"></path></g></svg>